<svg width="18" height="15" viewBox="0 0 18 15" fill="none" xmlns="http://www.w3.org/2000/svg">
<path d="M16.0568 0L12.7818 0.585L15.0651 3.24L16.7068 2.94L16.0568 0ZM10.3318 1.02L8.69013 1.3125L10.9818 3.96L12.6151 3.6675L10.3318 1.02ZM6.24846 1.74L4.60679 2.0475L6.89846 4.695L8.53179 4.4025L6.24846 1.74ZM2.1568 2.49L1.34013 2.6325C0.907115 2.71036 0.526132 2.9397 0.280831 3.27015C0.0355299 3.60061 -0.0540368 4.00516 0.0317966 4.395L0.356797 5.865L4.44013 5.1375L2.1568 2.49ZM0.356797 5.865V13.365C0.356797 14.1975 1.1068 14.865 2.02346 14.865H15.3568C16.2818 14.865 17.0235 14.1975 17.0235 13.365V5.865H0.356797Z" fill="white"/>
</svg>
